<?xml version="1.0" standalone="no"?>
<!DOCTYPE svg PUBLIC "-//W3C//DTD SVG 20010904//EN"
 "http://www.w3.org/TR/2001/REC-SVG-20010904/DTD/svg10.dtd">
<svg version="1.0" xmlns="http://www.w3.org/2000/svg"
 width="106.000000pt" height="106.000000pt" viewBox="0 0 106.000000 106.000000"
 preserveAspectRatio="xMidYMid meet">
<metadata>
Created by potrace 1.14, written by Peter Selinger 2001-2017
</metadata>
<g transform="translate(0.000000,106.000000) scale(0.100000,-0.100000)"
fill="#000000" stroke="none">
<path d="M417 960 c-57 -18 -120 -58 -145 -91 -7 -10 -24 -19 -39 -21 -24 -3
-29 -11 -47 -70 -18 -58 -24 -67 -46 -70 -18 -2 -25 -9 -24 -23 1 -11 5 -56 8
-100 l7 -80 -43 -21 c-108 -52 -117 -201 -16 -267 23 -15 52 -27 65 -27 23 0
30 -13 35 -75 l3 -30 313 -3 c350 -3 355 -2 388 65 11 21 24 39 29 40 6 1 24
4 41 8 49 9 101 66 109 120 4 24 4 57 0 72 -10 43 -52 90 -91 105 l-35 13 6
60 c3 33 9 79 11 103 6 41 5 42 -24 42 -27 0 -30 4 -46 61 -18 66 -33 88 -55
81 -7 -2 -29 12 -49 31 -86 83 -234 115 -355 77z"/>
</g>
</svg>
